<svg xmlns="http://www.w3.org/2000/svg" width="1800" height="1260" viewBox="0 0 1800 1260" role="img" aria-labelledby="title desc">
  <title id="title">资源管理与调度二级架构</title>
  <desc id="desc">面向 FPGA、EMU、CPU、QEMU 等资源的管理与调度二级架构，突出 Jenkins、人工调试、里程碑和 Agent 的统一硬件调度入口，以及 labgrid 之上的排队、优先级、独占租约和抢占控制。</desc>
  <defs>
    <linearGradient id="bg" x1="0" y1="0" x2="1" y2="1">
      <stop offset="0%" stop-color="#f8fafc"/>
      <stop offset="100%" stop-color="#eef2ff"/>
    </linearGradient>
    <marker id="arrow" viewBox="0 0 10 10" refX="8.6" refY="5" markerWidth="8" markerHeight="8" orient="auto">
      <path d="M 0 0 L 10 5 L 0 10 z" fill="#475569"/>
    </marker>
    <filter id="shadow" x="-10%" y="-10%" width="120%" height="130%">
      <feDropShadow dx="0" dy="7" stdDeviation="7" flood-color="#0f172a" flood-opacity="0.10"/>
    </filter>
    <style>
      .page { fill: url(#bg); }
      .title { font: 700 36px "PingFang SC", "Microsoft YaHei", Arial, sans-serif; fill: #0f172a; }
      .subtitle { font: 400 17px "PingFang SC", "Microsoft YaHei", Arial, sans-serif; fill: #475569; }
      .section { fill: #ffffff; stroke-width: 1.5; filter: url(#shadow); }
      .section-title { font: 700 22px "PingFang SC", "Microsoft YaHei", Arial, sans-serif; fill: #ffffff; }
      .section-subtitle { font: 400 14px "PingFang SC", "Microsoft YaHei", Arial, sans-serif; fill: rgba(255,255,255,0.88); }
      .card { fill: #ffffff; stroke-width: 1.3; }
      .card-title { font: 700 17px "PingFang SC", "Microsoft YaHei", Arial, sans-serif; fill: #0f172a; }
      .card-text { font: 400 13px "PingFang SC", "Microsoft YaHei", Arial, sans-serif; fill: #475569; }
      .chip { font: 700 12px "PingFang SC", "Microsoft YaHei", Arial, sans-serif; fill: #ffffff; }
      .arrow { stroke: #475569; stroke-width: 2.2; fill: none; marker-end: url(#arrow); }
      .arrow-soft { stroke: #94a3b8; stroke-width: 1.8; fill: none; marker-end: url(#arrow); stroke-dasharray: 8 7; }
      .lane-label { font: 700 15px "PingFang SC", "Microsoft YaHei", Arial, sans-serif; fill: #334155; }
      .note { font: 400 12px "PingFang SC", "Microsoft YaHei", Arial, sans-serif; fill: #64748b; }
    </style>
  </defs>

  <rect class="page" x="0" y="0" width="1800" height="1260"/>
  <text class="title" x="70" y="58">资源管理与调度二级架构</text>
  <text class="subtitle" x="70" y="90">核心约束：所有硬件入口先过 Hardware Scheduler，再访问 labgrid；FPGA / EMU 默认独占租约；插队和抢占必须保护现场。</text>

  <!-- Request sources -->
  <rect class="section" x="55" y="130" width="360" height="870" rx="22" stroke="#6366f1"/>
  <rect x="80" y="156" width="170" height="72" rx="18" fill="#4f46e5"/>
  <text class="section-title" x="104" y="187">请求入口</text>
  <text class="section-subtitle" x="104" y="211">Jenkins / 人 / 里程碑 / Agent</text>

  <rect class="card" x="85" y="260" width="285" height="102" rx="14" stroke="#6366f1"/>
  <text class="card-title" x="112" y="292">Jenkins 测试阶段</text>
  <text class="card-text" x="112" y="319">build 完成后申请 FPGA / QEMU</text>
  <text class="card-text" x="112" y="342">Host Agent 执行既有测试脚本</text>

  <rect class="card" x="85" y="390" width="285" height="102" rx="14" stroke="#6366f1"/>
  <text class="card-title" x="112" y="422">人工 debug 请求</text>
  <text class="card-text" x="112" y="449">调试、复现、保留失败现场</text>
  <text class="card-text" x="112" y="472">白天默认高于普通程序任务</text>

  <rect class="card" x="85" y="520" width="285" height="102" rx="14" stroke="#6366f1"/>
  <text class="card-title" x="112" y="552">里程碑 / Agent 触发</text>
  <text class="card-text" x="112" y="579">投片门禁、夜间回归、复跑计划</text>
  <text class="card-text" x="112" y="602">统一转成 ResourceRequest</text>

  <rect class="card" x="85" y="650" width="285" height="126" rx="14" stroke="#6366f1"/>
  <text class="card-title" x="112" y="682">统一请求标准化</text>
  <text class="card-text" x="112" y="709">source：Jenkins / human / agent</text>
  <text class="card-text" x="112" y="732">priority、duration、deadline</text>
  <text class="card-text" x="112" y="755">metadata、interruptibility</text>

  <rect class="card" x="85" y="805" width="285" height="126" rx="14" stroke="#6366f1"/>
  <text class="card-title" x="112" y="837">统一入口约束</text>
  <text class="card-text" x="112" y="864">禁止绕过 Scheduler 直连 labgrid</text>
  <text class="card-text" x="112" y="887">acquire / release 由租约驱动</text>
  <text class="card-text" x="112" y="910">调用方只提交业务意图</text>

  <!-- Scheduling core -->
  <rect class="section" x="455" y="130" width="890" height="870" rx="22" stroke="#16a34a"/>
  <rect x="480" y="156" width="245" height="72" rx="18" fill="#15803d"/>
  <text class="section-title" x="504" y="187">硬件调度核心</text>
  <text class="section-subtitle" x="504" y="211">API / 队列 / 租约 / 抢占</text>

  <rect class="card" x="500" y="260" width="365" height="120" rx="14" stroke="#16a34a"/>
  <text class="card-title" x="528" y="292">统一调度 API</text>
  <text class="card-text" x="528" y="319">acquire / release / renew / preempt</text>
  <text class="card-text" x="528" y="342">白天 human boost，夜间 program boost</text>
  <text class="card-text" x="528" y="365">所有请求进入同一业务入口</text>

  <rect class="card" x="910" y="260" width="365" height="120" rx="14" stroke="#16a34a"/>
  <text class="card-title" x="938" y="292">昼夜窗口策略</text>
  <text class="card-text" x="938" y="319">工作时段：人优先，程序可 drain</text>
  <text class="card-text" x="938" y="342">夜间时段：程序优先填充空闲资源</text>
  <text class="card-text" x="938" y="365">P0 / 预约 / 审批可跨窗口覆盖</text>

  <rect class="card" x="500" y="410" width="365" height="120" rx="14" stroke="#16a34a"/>
  <text class="card-title" x="528" y="442">注入排队与优先级队列</text>
  <text class="card-text" x="528" y="469">Jenkins / human / milestone / agent 分片</text>
  <text class="card-text" x="528" y="492">按资源、项目、优先级、deadline 排序</text>
  <text class="card-text" x="528" y="515">支持插队、等待老化、稀缺加权</text>

  <rect class="card" x="910" y="410" width="365" height="120" rx="14" stroke="#16a34a"/>
  <text class="card-title" x="938" y="442">独占租约与 labgrid place</text>
  <text class="card-text" x="938" y="469">FPGA / EMU 默认 exclusive lease</text>
  <text class="card-text" x="938" y="492">租约绑定 owner、任务、place、host</text>
  <text class="card-text" x="938" y="515">acquire / release 跟随租约审计</text>

  <rect class="card" x="500" y="560" width="365" height="128" rx="14" stroke="#16a34a"/>
  <text class="card-title" x="528" y="592">资源匹配与评分</text>
  <text class="card-text" x="528" y="619">能力矩阵：芯片 / 平台 / 版本 / debug</text>
  <text class="card-text" x="528" y="642">亲和性：真实硬件、trace、速度、稳定性</text>
  <text class="card-text" x="528" y="665">过滤 unhealthy / reserved / incompatible</text>

  <rect class="card" x="910" y="560" width="365" height="128" rx="14" stroke="#16a34a"/>
  <text class="card-title" x="938" y="592">插队与抢占控制器</text>
  <text class="card-text" x="938" y="619">drain / checkpoint 优先保护现场</text>
  <text class="card-text" x="938" y="642">force 触发 kill / reset / release</text>
  <text class="card-text" x="938" y="665">仅高优先级 + 审批 + 审计</text>

  <rect class="card" x="500" y="718" width="365" height="126" rx="14" stroke="#16a34a"/>
  <text class="card-title" x="528" y="750">业务 Metadata 与预约</text>
  <text class="card-text" x="528" y="777">来源系统、任务 ID、版本矩阵</text>
  <text class="card-text" x="528" y="800">人工调试、专项验证、夜间回归窗口</text>
  <text class="card-text" x="528" y="823">预计释放时间、可抢占标记</text>

  <rect class="card" x="910" y="718" width="365" height="126" rx="14" stroke="#16a34a"/>
  <text class="card-title" x="938" y="750">调度决策记录</text>
  <text class="card-text" x="938" y="777">为什么选该资源</text>
  <text class="card-text" x="938" y="800">为什么抢占/不中断</text>
  <text class="card-text" x="938" y="823">输入快照、分数、规则命中</text>

  <!-- Resource operation -->
  <rect class="section" x="1385" y="130" width="360" height="870" rx="22" stroke="#ea580c"/>
  <rect x="1410" y="156" width="205" height="72" rx="18" fill="#c2410c"/>
  <text class="section-title" x="1434" y="187">资源执行面</text>
  <text class="section-subtitle" x="1434" y="211">适配 / 健康 / 现场</text>

  <rect class="card" x="1420" y="260" width="285" height="102" rx="14" stroke="#ea580c"/>
  <text class="card-title" x="1447" y="292">资源注册与能力矩阵</text>
  <text class="card-text" x="1447" y="319">类型、芯片版本、软件版本</text>
  <text class="card-text" x="1447" y="342">debug 能力、trace、稳定性、速度</text>

  <rect class="card" x="1420" y="390" width="285" height="102" rx="14" stroke="#ea580c"/>
  <text class="card-title" x="1447" y="422">心跳与健康检查</text>
  <text class="card-text" x="1447" y="449">online、temperature、disk、board 状态</text>
  <text class="card-text" x="1447" y="472">unhealthy 自动隔离</text>

  <rect class="card" x="1420" y="520" width="285" height="102" rx="14" stroke="#ea580c"/>
  <text class="card-title" x="1447" y="552">labgrid Gateway</text>
  <text class="card-text" x="1447" y="579">封装 place acquire / release</text>
  <text class="card-text" x="1447" y="602">映射 coordinator、host、place</text>

  <rect class="card" x="1420" y="650" width="285" height="126" rx="14" stroke="#ea580c"/>
  <text class="card-title" x="1447" y="682">Host 脚本与现场保护</text>
  <text class="card-text" x="1447" y="709">FPGA load / run_test / pytest</text>
  <text class="card-text" x="1447" y="732">抢占前保存版本、参数、日志</text>
  <text class="card-text" x="1447" y="755">reset / release / cleanup 留证据</text>

  <rect class="card" x="1420" y="805" width="285" height="126" rx="14" stroke="#ea580c"/>
  <text class="card-title" x="1447" y="837">真实资源池</text>
  <text class="card-text" x="1447" y="864">Host / FPGA / EMU / QEMU</text>
  <text class="card-text" x="1447" y="887">labgrid place 与 ResourceUnit 绑定</text>
  <text class="card-text" x="1447" y="910">不可虚拟化资源独占使用</text>

  <!-- Bottom governance -->
  <rect class="section" x="55" y="1040" width="1690" height="135" rx="22" stroke="#0f766e"/>
  <rect x="80" y="1063" width="225" height="88" rx="18" fill="#0f766e"/>
  <text class="section-title" x="104" y="1098">治理与观测</text>
  <text class="section-subtitle" x="104" y="1124">指标 / 审计 / 告警 / 解释</text>

  <rect class="card" x="345" y="1063" width="285" height="88" rx="14" stroke="#0f766e"/>
  <text class="card-title" x="372" y="1094">调度指标</text>
  <text class="card-text" x="372" y="1121">资源利用率、等待时间、中断次数</text>

  <rect class="card" x="660" y="1063" width="285" height="88" rx="14" stroke="#0f766e"/>
  <text class="card-title" x="687" y="1094">统一入口审计</text>
  <text class="card-text" x="687" y="1121">Jenkins、人、里程碑、Agent 占用可追溯</text>

  <rect class="card" x="975" y="1063" width="285" height="88" rx="14" stroke="#0f766e"/>
  <text class="card-title" x="1002" y="1094">审计与解释</text>
  <text class="card-text" x="1002" y="1121">租约、抢占、暂停、释放全部留理由</text>

  <rect class="card" x="1290" y="1063" width="285" height="88" rx="14" stroke="#0f766e"/>
  <text class="card-title" x="1317" y="1094">通知与审批</text>
  <text class="card-text" x="1317" y="1121">租约到期、抢占申请、P0 覆盖、异常隔离</text>

  <!-- Arrows -->
  <path class="arrow" d="M 370 312 C 430 312 440 312 495 312"/>
  <path class="arrow" d="M 370 442 C 430 442 440 442 495 442"/>
  <path class="arrow" d="M 370 572 C 430 572 440 572 495 572"/>
  <path class="arrow" d="M 865 320 C 890 320 885 320 905 320"/>
  <path class="arrow" d="M 683 380 L 683 405"/>
  <path class="arrow" d="M 1093 380 L 1093 405"/>
  <path class="arrow" d="M 865 470 C 890 470 885 470 905 470"/>
  <path class="arrow" d="M 683 530 L 683 555"/>
  <path class="arrow" d="M 1093 530 L 1093 555"/>
  <path class="arrow" d="M 865 624 C 890 624 885 624 905 624"/>
  <path class="arrow" d="M 1275 624 C 1335 624 1345 624 1415 574"/>
  <path class="arrow" d="M 1275 470 C 1335 470 1345 470 1415 442"/>
  <path class="arrow" d="M 1275 780 C 1335 780 1345 780 1415 845"/>
  <path class="arrow-soft" d="M 1562 362 L 1562 385"/>
  <path class="arrow-soft" d="M 1562 492 L 1562 515"/>
  <path class="arrow-soft" d="M 1562 622 L 1562 645"/>
  <path class="arrow" d="M 900 1000 L 900 1034"/>

  <!-- Policy chips -->
  <rect x="500" y="875" width="190" height="38" rx="19" fill="#16a34a"/>
  <text class="chip" x="528" y="900">Daytime：Human First</text>
  <rect x="710" y="875" width="195" height="38" rx="19" fill="#0ea5e9"/>
  <text class="chip" x="738" y="900">Night：Program Fill</text>
  <rect x="925" y="875" width="205" height="38" rx="19" fill="#f97316"/>
  <text class="chip" x="953" y="900">FPGA / EMU：Exclusive</text>
  <rect x="1150" y="875" width="125" height="38" rx="19" fill="#dc2626"/>
  <text class="chip" x="1183" y="900">P0 Override</text>
  <rect x="500" y="925" width="230" height="38" rx="19" fill="#7c3aed"/>
  <text class="chip" x="528" y="950">labgrid Gateway Only</text>
  <rect x="750" y="925" width="190" height="38" rx="19" fill="#334155"/>
  <text class="chip" x="778" y="950">Jenkins as Client</text>
</svg>
